Coordinates
version=1
nRows=11
nColumns=40
inDegrees=yes

Units are S.I. units (second, meters, Newtons, ...)
If the header above contains a line with 'inDegrees', this indicates whether rotational values are in degrees (yes) or radians (no).

endheader
time	pelvis_tilt	pelvis_list	pelvis_rotation	pelvis_tx	pelvis_ty	pelvis_tz	hip_flexion_r	hip_adduction_r	hip_rotation_r	knee_angle_r	knee_angle_r_beta	ankle_angle_r	subtalar_angle_r	mtp_angle_r	hip_flexion_l	hip_adduction_l	hip_rotation_l	knee_angle_l	knee_angle_l_beta	ankle_angle_l	subtalar_angle_l	mtp_angle_l	lumbar_extension	lumbar_bending	lumbar_rotation	arm_flex_r	arm_add_r	arm_rot_r	elbow_flex_r	pro_sup_r	wrist_flex_r	wrist_dev_r	arm_flex_l	arm_add_l	arm_rot_l	elbow_flex_l	pro_sup_l	wrist_flex_l	wrist_dev_l
      5.70000000	     39.19101858	     -7.30948803	    -10.96016185	      0.01642158	      1.32132982	      0.00145792	      4.98864117	    -14.63829566	     -6.79917848	     82.90816795	      1.44702051	     -6.24200866	    -31.35665328	      0.00000000	     16.72557383	    -14.76361712	    -12.31202913	     63.43651362	      1.10717603	     -0.33206683	     -3.39092617	      0.00000000	    -55.66876955	      0.38151294	     -0.90599939	      1.95635597	     -1.32498900	     -7.25421415	     36.32016996	     82.38623075	      0.00000000	      0.00000000	     -4.69261968	     -3.21004123	      1.52987939	     69.02896867	     84.62898161	      0.00000000	      0.00000000
      5.71700000	     38.59200855	     -8.01864976	    -11.11637500	      0.01707671	      1.32143024	      0.00106037	      7.69228680	    -13.97343448	     -5.89390003	     86.14282610	      1.50347594	     -5.65868782	    -31.36529535	      0.00000000	     14.44537217	    -15.27733892	    -13.25746663	     59.94672381	      1.04626771	     -1.82151194	     -2.68303061	      0.00000000	    -55.59934875	      1.14553921	     -0.78927766	      3.56430205	     -2.07049619	     -7.12979057	     37.06526466	     82.41401812	      0.00000000	      0.00000000	     -2.64526737	     -3.44231202	      0.93799636	     68.69566307	     84.63446970	      0.00000000	      0.00000000
      5.73300000	     37.70150083	     -8.71722759	    -12.26050886	      0.01776181	      1.32116315	      0.00164820	     11.18720674	    -13.01037714	     -3.95401621	     89.38169221	      1.56000482	     -5.07831090	    -31.02566454	      0.00000000	     11.93748613	    -16.00260105	    -15.27805448	     56.37115364	      0.98386223	     -2.98220693	     -2.11137557	      0.00000000	    -55.28632508	      1.25160324	     -0.12427217	      5.39644642	     -2.92471115	     -7.03401145	     37.68854702	     82.48905730	      0.00000000	      0.00000000	     -0.43334574	     -3.82911403	      0.44820187	     68.19482490	     84.59643237	      0.00000000	      0.00000000
      5.75000000	     36.67061844	     -9.41699639	    -13.35469131	      0.01841676	      1.32069093	      0.00215210	     14.80920915	    -11.92548831	     -2.27948856	     92.33437859	      1.61153892	     -4.60519180	    -30.75692458	      0.00000000	      9.69572877	    -16.68504911	    -17.16450938	     53.02949221	      0.92553924	     -4.25145099	     -1.49287152	      0.00000000	    -54.92855694	      1.44851977	      0.57061455	      7.37970294	     -3.72303424	     -6.97276343	     38.28613997	     82.56486084	      0.00000000	      0.00000000	      1.99995082	     -4.14912688	     -0.02445160	     67.32339496	     84.50959880	      0.00000000	      0.00000000
      5.76700000	     35.56079347	     -9.98176590	    -14.17845392	      0.01916921	      1.32014412	      0.00242864	     18.49739593	    -11.03618569	     -1.06031634	     95.02475200	      1.65849479	     -4.21383297	    -30.49596692	      0.00000000	      7.73409838	    -17.18411677	    -18.78125267	     49.82004740	      0.86952386	     -6.00703657	     -0.82919139	      0.00000000	    -54.52916998	      1.78733438	      1.03710052	      9.58872350	     -4.45190917	     -6.80160237	     38.68591124	     82.65684386	      0.00000000	      0.00000000	      4.72027405	     -4.52303485	     -0.38834573	     65.96596534	     84.42045664	      0.00000000	      0.00000000
      5.78300000	     34.33370274	    -10.45109435	    -15.10068181	      0.01995403	      1.31942947	      0.00279385	     22.39362987	    -10.13513826	      0.12881645	     97.46227718	      1.70103763	     -3.88572581	    -30.18766692	      0.00000000	      5.92456953	    -17.62203613	    -20.50468761	     46.78287009	      0.81651512	     -7.82673683	     -0.15462660	      0.00000000	    -54.05514002	      2.04109800	      1.50764707	     11.98626360	     -5.09942830	     -6.65982223	     38.93059254	     82.75293888	      0.00000000	      0.00000000	      7.66016161	     -4.88024271	     -0.77325306	     64.15838513	     84.23867773	      0.00000000	      0.00000000
      5.80000000	     33.20466767	    -10.81139109	    -15.54233029	      0.02086807	      1.31885461	      0.00271572	     25.96675338	     -9.55658067	      0.68577417	     99.40798469	      1.73499664	     -3.66151097	    -29.99317756	      0.00000000	      4.39721961	    -17.87504118	    -21.58589647	     44.08047363	      0.76934940	     -9.74377729	      0.45672192	      0.00000000	    -53.67908107	      2.56558397	      1.59193593	     14.62211804	     -5.62377253	     -6.39663456	     38.79277399	     82.86864140	      0.00000000	      0.00000000	     10.73276936	     -5.35057061	     -1.18071433	     61.99842213	     84.23145333	      0.00000000	      0.00000000
      5.81700000	     31.92367394	    -10.94184529	    -16.57163528	      0.02162577	      1.31789758	      0.00333931	     29.93790773	     -8.80291902	      1.74038057	    101.08148444	      1.76420472	     -3.52705942	    -29.71150585	      0.00000000	      2.99851908	    -18.05894185	    -23.23496644	     41.78428393	      0.72927333	    -11.27770035	      1.03946235	      0.00000000	    -53.12528175	      2.51823229	      1.98048136	     17.25937516	     -6.06877948	     -6.17722342	     38.56517737	     83.01857137	      0.00000000	      0.00000000	     13.99527400	     -5.80553709	     -1.60976184	     59.40053987	     84.16358292	      0.00000000	      0.00000000
      5.83300000	     30.77934525	    -11.03742373	    -17.19526122	      0.02250857	      1.31715292	      0.00361166	     33.54718889	     -8.29280344	      2.27132412	    102.28032194	      1.78512838	     -3.45499421	    -29.56622584	      0.00000000	      1.78648869	    -18.19413447	    -24.33736146	     39.89355647	      0.69627391	    -12.67504649	      1.55901479	      0.00000000	    -52.71308401	      2.71255537	      2.08364223	     20.08042206	     -6.33779505	     -6.02971381	     38.01007844	     83.20517888	      0.00000000	      0.00000000	     17.39067668	     -6.21906153	     -2.25270567	     56.35032833	     84.19227936	      0.00000000	      0.00000000
      5.85000000	     29.65824608	    -10.99527838	    -17.85942181	      0.02339349	      1.31637484	      0.00404757	     37.00657507	     -7.81311908	      2.76944203	    103.05908877	      1.79872042	     -3.38833727	    -29.49561279	      0.00000000	      0.82783668	    -18.26079717	    -25.30778684	     38.47834548	      0.67157382	    -13.85603759	      1.93776542	      0.00000000	    -52.32922756	      2.75032260	      2.19118783	     22.92893477	     -6.49463120	     -6.00308347	     37.22429213	     83.41087844	      0.00000000	      0.00000000	     20.84323589	     -6.54456132	     -2.91558229	     52.95017701	     84.23057298	      0.00000000	      0.00000000
      5.86700000	     28.81901539	    -11.00730280	    -17.99263859	      0.02446476	      1.31611761	      0.00404955	     39.74873674	     -7.67971500	      2.67339933	    103.28914641	      1.80273569	     -3.23183720	    -29.56668115	      0.00000000	     -0.02372803	    -18.35737793	    -25.58981161	     37.53052536	      0.65503124	    -14.73835297	      2.17515510	      0.00000000	    -52.29143295	      3.10270120	      1.94298029	     25.97957945	     -6.38680740	     -6.26374154	     35.98468499	     83.56459468	      0.00000000	      0.00000000	     24.16753315	     -6.68649610	     -4.11540007	     49.38424550	     84.41574957	      0.00000000	      0.00000000
